<svg width="803" height="352" viewBox="0 0 803 352" fill="none" xmlns="http://www.w3.org/2000/svg">
<path fill-rule="evenodd" clip-rule="evenodd" d="M7.96939 117.889C9.83286 111.978 11.8882 105.302 14.0688 98.2186C26.1323 59.0316 42.0307 7.38755 50.4999 3.99995C60.4999 -4.50563e-06 198.5 3.99994 198.5 3.99994H323C323 3.99994 771.5 -4.00003 786 3.99999C800.5 12 802.5 214.5 802.5 214.5C802.5 214.5 802.086 273.356 796 287.531C794.472 291.091 744.432 293.554 670.238 295.075C660.031 328.098 630.205 352 595 352C560.412 352 531.016 328.928 520.317 296.803C423.91 297.284 317.088 296.868 226.036 295.718C215.643 328.408 185.976 352 151 352C114.911 352 84.4739 326.882 75.0301 292.57C34.3096 291.169 9.12239 289.471 7.96943 287.531C1.44813 276.557 -4.20326 156.5 7.96939 117.889ZM146 16C142 11.5 70.4999 13 63.4999 16C56.4999 19 18.9998 121 27.4999 127C35.9999 133 142.5 130.5 146 127C149.5 123.5 150 20.5 146 16ZM165 16C168.786 11.5 312.499 11.5 317 16C321.5 20.5 320.999 121.5 317 127C313 132.5 169.5 132.5 165 127C160.499 121.5 161.214 20.5 165 16ZM488.113 16.375C483.613 11.875 339.899 11.875 336.113 16.375C332.327 20.875 331.613 121.875 336.113 127.375C340.613 132.875 484.113 132.875 488.113 127.375C492.113 121.875 492.613 20.875 488.113 16.375ZM507.113 16.375C510.899 11.875 654.613 11.875 659.113 16.375C663.613 20.875 663.113 121.875 659.113 127.375C655.113 132.875 511.613 132.875 507.113 127.375C502.613 121.875 503.327 20.875 507.113 16.375ZM773.965 16.3608C771.093 11.8797 679.402 11.8797 676.986 16.3608C674.571 20.8418 674.115 121.416 676.986 126.892C679.857 132.369 771.413 132.369 773.965 126.892C776.516 121.416 776.836 20.8418 773.965 16.3608Z" fill="black"/>
</svg>
