<svg width="738" height="464" viewBox="0 0 738 464" fill="none" xmlns="http://www.w3.org/2000/svg">
<path fill-rule="evenodd" clip-rule="evenodd" d="M323 2.00002C328.24 -2.07588 340 2.00002 340 2.00002V9.741C350.24 8.51773 357.285 7.94782 358.5 8.50002C364 11 358.5 23.5 358.5 23.5L340 25.91V77.9128C476.858 78.5202 715.039 89.2084 723.5 94C737.604 101.987 737.5 323.5 737.5 323.5C737.5 323.5 729.42 389.595 723.5 403.748C722.493 406.155 701.333 408.275 666.879 410.046C655.726 441.289 626.757 463.556 592.778 463.556C560.411 463.556 532.59 443.351 520.383 414.429C426.65 416.064 315.429 416.488 220.76 415.392C208.347 443.798 180.785 463.556 148.778 463.556C115.401 463.556 86.8574 442.07 75.2859 411.696C35.5671 409.764 10.8378 407.141 9.86378 403.748C4.5874 385.363 -6.59893 268.019 5.24127 229.469C7.05384 223.568 9.053 216.902 11.174 209.83C22.9081 170.705 38.3724 119.143 46.6102 115.761C56.3372 111.767 190.568 115.761 190.568 115.761H232.609C232.609 115.761 235.527 96.2365 245.741 82.7579C248.26 79.4325 277.902 78.0268 321.306 77.896C320.189 63.7784 318.942 44.3626 319.002 28.6454L228 40.5V26.5C228 26.5 281.245 17.7679 319.762 12.3967C320.377 7.01749 321.406 3.23932 323 2.00002ZM203.737 73.2003C195.446 65.7002 112.735 64.2003 95.7367 73.2003C85.3827 78.6823 88.2387 98.7002 95.7367 103.2C103.235 107.7 196.735 109.7 203.737 103.2C210.739 96.7002 212.028 80.7003 203.737 73.2003ZM67.2466 129.84C74.2466 126.84 145.747 125.34 149.747 129.84C153.747 134.34 153.247 237.34 149.747 240.84C146.247 244.34 39.7467 246.84 31.2466 240.84C22.7465 234.84 60.2466 132.84 67.2466 129.84ZM433.723 183.652C417.867 184.371 394.069 174.876 394.069 174.876C394.069 174.876 391.179 256.656 422.818 291.894C439.027 309.947 474.369 327 474.369 327C474.369 327 507.03 309.404 521.955 291.894C552.496 256.063 547.73 174.876 547.73 174.876C547.73 174.876 524.505 184.965 509.067 183.652C494.527 182.416 474.369 170 474.369 170C474.369 170 450.479 182.892 433.723 183.652Z" fill="black"/>
</svg>
