<svg width="742" height="286" viewBox="0 0 742 286" fill="none" xmlns="http://www.w3.org/2000/svg">
<path fill-rule="evenodd" clip-rule="evenodd" d="M347.737 6.20023C364.735 -2.79973 447.446 -1.29981 455.737 6.20023C464.028 13.7003 462.739 29.7002 455.737 36.2002C448.735 42.7003 355.235 40.7003 347.737 36.2002C340.239 31.7002 337.383 11.6823 347.737 6.20023ZM223.053 106.302C223.053 106.302 266.053 60.5316 287.053 52.3018C308.053 44.0721 512.791 40.3018 527.053 52.3018C541.315 64.3018 566.053 106.302 566.053 106.302C566.053 106.302 697.053 112.302 717.053 129.302C737.053 146.302 747.053 232.302 739.053 243.302C737.473 245.475 708.125 247.257 661.986 248.588C652.977 270.345 631.539 285.651 606.526 285.651C582.297 285.651 561.422 271.289 551.95 250.614C446.084 251.794 313.67 251.606 205.531 249.764C195.78 270.845 172.81 285.651 146.026 285.651C117.887 285.651 93.9567 269.308 85.1442 246.516C36.5883 244.48 5.54848 241.764 4.05288 238.302C-3.29087 221.302 1.05288 172.302 15.0529 155.302C29.0529 138.302 223.053 106.302 223.053 106.302ZM512.5 62.6694C499 54.9027 409 59.1694 409 59.1694V115.169H541C541 115.169 526 70.4361 512.5 62.6694ZM293 68.1422C317.5 57.1422 393.5 59.1422 393.5 59.1422V115.142H246C246 115.142 268.5 79.1422 293 68.1422ZM369.5 147.5C361.503 147.869 349.5 143 349.5 143C349.5 143 348.042 184.932 364 203C372.175 212.256 390 221 390 221C390 221 406.473 211.978 414 203C429.404 184.628 427 143 427 143C427 143 415.287 148.173 407.5 147.5C400.167 146.866 390 140.5 390 140.5C390 140.5 377.951 147.11 369.5 147.5Z" fill="black"/>
</svg>
