<svg width="729" height="177" viewBox="0 0 729 177" fill="none" xmlns="http://www.w3.org/2000/svg">
<path fill-rule="evenodd" clip-rule="evenodd" d="M265.5 68C265.5 68 386 76.2297 407 68C417.434 63.911 417.5 47.0982 417.561 31.215V31.2141C417.624 15.1303 417.683 0 428.5 3.8147e-06C444.777 5.43916e-06 547.883 44.9909 597.02 66.8515C604.563 63.1035 613.04 61 622 61C622.334 61 622.667 61.0029 623 61.0087V22.5C644.39 10.9576 713.757 13.7936 724 22.5C734.243 31.2064 724 112 724 112C724 112 681 155.39 670.5 155.903C668.964 155.978 667.395 156.053 665.794 156.127C655.338 168.883 639.601 177 622 177C605.719 177 591.033 170.054 580.646 158.917C471.224 161.549 316.364 162.702 194.674 161.351C183.663 171.053 168.824 177 152.5 177C135.318 177 119.782 170.412 108.624 159.791C46.9287 158.11 5.80687 155.362 4.05297 151.302C-2.99025 134.998 1.58812 129.454 14.3252 114.03L14.3699 113.976C14.8994 113.335 15.4429 112.677 16 112C21.1699 105.722 56.5444 98.081 99.1111 90.9392C109.716 73.6481 129.653 62 152.5 62C168.432 62 182.948 67.6639 193.873 76.9556C234.267 71.5809 265.5 68 265.5 68Z" fill="black"/>
</svg>
