<svg width="802" height="351" viewBox="0 0 802 351" fill="none" xmlns="http://www.w3.org/2000/svg">
<path fill-rule="evenodd" clip-rule="evenodd" d="M171.475 104.543C171.475 104.543 28.4466 104.543 14.9695 116.889C1.49238 129.235 -3.72448 275.557 2.79682 286.531C4.08607 288.701 34.3641 290.567 82.1651 292.054C91.7611 326.118 122.081 351 158 351C192.89 351 222.497 327.524 232.959 294.96C326.083 296.037 433.515 296.316 527.254 295.615C537.902 327.838 567.345 351 602 351C637.519 351 667.564 326.669 677.507 293.187C729.242 291.657 762.329 289.467 763.59 286.531C769.676 272.356 770.679 221.142 763.59 216.571C761.38 215.147 718.734 214.61 661.067 214.546C658.108 211.09 654.871 207.895 651.393 205H802V78H339V205H552.607C549.02 207.987 545.689 211.291 542.655 214.873C436.913 215.449 333 216.571 333 216.571C333 216.571 334.937 18.122 323.199 9.89141C311.461 1.66083 216.254 -7.48434 202.342 9.89141C188.43 27.2672 171.475 104.543 171.475 104.543ZM214.5 17C225.5 11.8205 286.5 9.5 294 17C301.5 24.5 294 105 294 105H192C192 105 203.5 22.1795 214.5 17Z" fill="white"/>
</svg>
